<?xml version="1.0" standalone="no"?>
<!DOCTYPE svg PUBLIC "-//W3C//DTD SVG 20010904//EN"
 "http://www.w3.org/TR/2001/REC-SVG-20010904/DTD/svg10.dtd">
<svg version="1.0" xmlns="http://www.w3.org/2000/svg"
 width="512.000000pt" height="512.000000pt" viewBox="0 0 512.000000 512.000000"
 preserveAspectRatio="xMidYMid meet">
<metadata>
Created by potrace 1.14, written by Peter Selinger 2001-2017
</metadata>
<g transform="translate(0.000000,512.000000) scale(0.100000,-0.100000)"
fill="#000000" stroke="none">
<path d="M1055 4511 l-410 -238 0 -433 0 -432 170 -98 c94 -54 170 -103 170
-109 0 -6 -135 -88 -300 -184 -165 -95 -315 -181 -333 -192 l-32 -19 2 -674 3
-674 165 -95 c180 -105 1247 -721 1781 -1029 185 -107 339 -194 342 -194 3 0
495 289 1094 643 598 354 1114 658 1146 676 l57 32 0 639 0 639 -27 19 c-16
10 -160 94 -320 186 l-293 169 0 212 0 213 -82 48 c-46 26 -92 53 -103 60 -19
12 -32 6 -133 -61 l-112 -75 0 -70 c0 -39 -3 -70 -7 -70 -4 0 -51 25 -105 56
l-98 55 0 98 c0 80 -3 103 -17 118 -10 11 -203 127 -430 257 l-412 237 -262
-151 c-143 -82 -263 -150 -265 -150 -2 0 -4 89 -4 198 l0 197 -371 214 c-204
117 -379 215 -388 217 -9 2 -200 -104 -426 -235z m2058 -612 c183 -105 335
-194 339 -198 4 -3 -185 -116 -419 -251 -442 -255 -460 -268 -431 -312 7 -10
152 -99 321 -197 170 -98 309 -181 309 -186 0 -9 -1322 -763 -1354 -772 -16
-5 -310 156 -357 195 -20 17 -13 22 287 194 251 144 307 180 307 198 0 17 -38
43 -195 133 l-195 113 -2 125 -3 124 260 148 260 149 2 215 3 215 255 148
c140 82 261 149 268 149 7 1 163 -85 345 -190z m400 -387 c-4 -1 -158 -90
-342 -196 l-335 -194 -33 16 c-18 9 -32 20 -30 25 1 5 169 105 372 223 l370
213 3 -42 c2 -23 0 -43 -5 -45z m194 -166 l128 -74 3 -323 2 -324 97 -55 c53
-30 104 -59 113 -64 13 -6 44 7 119 50 l100 59 3 201 3 202 263 -152 263 -151
-3 -49 -3 -50 -115 -66 c-592 -342 -611 -353 -629 -344 -11 5 -159 90 -330
189 l-311 180 0 101 c0 84 -3 104 -17 116 -10 9 -114 71 -230 138 -117 68
-213 125 -213 129 1 6 609 359 622 360 3 1 64 -32 135 -73z m-2528 -251 l61
-36 0 -97 c0 -53 -3 -106 -6 -117 -4 -13 -76 -61 -212 -139 l-206 -118 -61 30
c-100 51 -258 146 -258 156 1 11 592 355 610 356 7 0 39 -16 72 -35z m-37
-831 c387 -223 712 -406 724 -406 11 0 335 178 721 396 386 218 706 396 712
396 6 0 11 -16 11 -35 0 -25 -6 -39 -22 -49 -13 -8 -349 -200 -748 -425 l-725
-410 -3 -140 -3 -140 83 -48 83 -49 5 -109 5 -109 310 -178 c178 -103 317
-177 326 -175 10 3 147 81 306 175 158 93 452 267 653 385 l365 216 3 115 3
115 104 62 105 61 0 107 0 107 315 182 c173 100 317 182 320 182 3 0 5 -42 5
-94 l0 -94 -215 -124 -215 -123 0 -55 0 -55 -105 -58 -105 -59 0 -108 0 -108
-92 -52 c-141 -81 -128 -50 -128 -299 l-1 -216 -661 -390 c-364 -214 -666
-389 -671 -387 -5 1 -162 91 -348 198 l-339 196 0 108 0 108 -100 57 -100 57
0 107 0 108 -110 63 -110 63 0 212 0 213 -317 184 c-174 101 -320 185 -325
186 -4 2 -8 -44 -8 -102 l0 -105 -102 59 -103 59 -3 -315 c-1 -172 -6 -314
-10 -314 -4 0 -52 26 -107 58 l-100 58 -3 572 c-1 373 1 572 8 572 5 0 326
-183 712 -406z m2563 8 l340 -197 3 -46 3 -46 -108 -64 -108 -64 -3 -116 -3
-115 -137 -80 c-155 -91 -1038 -612 -1063 -627 -12 -8 -75 25 -275 140 l-259
151 -3 108 -3 109 -79 45 -80 45 0 75 1 75 712 402 c392 221 714 402 717 402
3 0 158 -88 345 -197z"/>
</g>
</svg>
